<svg width="1417" height="295" viewBox="0 0 1417 295" fill="none" xmlns="http://www.w3.org/2000/svg">
<path d="M196.898 254.263L194.833 295H91.3269L93.2391 238.286L93.8072 221.548H138.618L196.898 254.263Z" fill="#00072C"/>
<path d="M87.8897 0L192.324 0.0554251L190.828 62.2839L190.648 70.2513L190.537 74.6299H145.352L86.8921 41.6935L87.8897 0Z" fill="#00072C"/>
<path d="M282.364 179.481L232.232 262.978L206.902 248.762L158.433 221.548H200.043V190.676L202.247 189.554L252.683 163.809L282.364 179.481Z" fill="#00072C"/>
<path d="M84.2613 108.37L32.134 135.237L1.89966 118.263L52.1009 34.627L124.929 74.8101L84.1228 75.0734L84.2613 108.37Z" fill="#00072C"/>
<path d="M284.317 136.553L200.071 179.757L200.348 70.0986V68.3804L200.39 68.3666L236.097 50.6167L284.317 136.553Z" fill="#00072C"/>
<path d="M84.2738 119.399V231.774L83.7473 232.023L48.2614 248.651L0 162.617L31.9387 146.239L32.299 146.059L84.2738 119.399Z" fill="#00072C"/>
<path d="M466.281 98.2161V224H433.829V129.411H396.848V224H364.396V129.411H346.283V98.2161H364.396V96.9583C364.396 61.9065 384.102 44.3805 423.514 44.3805C432.403 44.3805 442.214 45.5545 452.948 47.9025V77.5875C441.711 76.2458 431.9 75.575 423.514 75.575C414.458 75.575 407.749 77.1682 403.389 80.3548C399.028 83.3736 396.848 88.9081 396.848 96.9583V98.2161H466.281Z" fill="#00072C"/>
<path d="M508.202 174.441C512.563 190.206 524.387 198.089 543.673 198.089C556.084 198.089 565.476 193.896 571.849 185.51L598.012 200.604C585.601 218.549 567.321 227.522 543.17 227.522C522.374 227.522 505.687 221.233 493.108 208.654C480.53 196.076 474.241 180.227 474.241 161.108C474.241 142.157 480.446 126.392 492.857 113.813C505.267 101.067 521.2 94.6941 540.655 94.6941C559.103 94.6941 574.281 101.067 586.188 113.813C598.264 126.559 604.301 142.324 604.301 161.108C604.301 165.301 603.882 169.745 603.043 174.441H508.202ZM507.699 149.284H571.849C570.004 140.731 566.147 134.358 560.277 130.165C554.575 125.972 548.034 123.876 540.655 123.876C531.934 123.876 524.722 126.14 519.02 130.668C513.318 135.029 509.544 141.234 507.699 149.284Z" fill="#00072C"/>
<path d="M611.862 224V40.3555H644.314V224H611.862Z" fill="#00072C"/>
<path d="M754.267 47.9025H786.719V224H754.267V209.158C744.708 221.401 731.123 227.522 713.513 227.522C696.574 227.522 682.067 221.149 669.992 208.403C658.084 195.489 652.131 179.724 652.131 161.108C652.131 142.492 658.084 126.811 669.992 114.065C682.067 101.151 696.574 94.6941 713.513 94.6941C731.123 94.6941 744.708 100.816 754.267 113.059V47.9025ZM694.394 186.768C701.103 193.309 709.488 196.579 719.551 196.579C729.614 196.579 737.915 193.309 744.456 186.768C750.997 180.06 754.267 171.506 754.267 161.108C754.267 150.71 750.997 142.24 744.456 135.7C737.915 128.991 729.614 125.637 719.551 125.637C709.488 125.637 701.103 128.991 694.394 135.7C687.853 142.24 684.583 150.71 684.583 161.108C684.583 171.506 687.853 180.06 694.394 186.768Z" fill="#00072C"/>
<path d="M830.258 133.939C830.258 137.293 832.439 140.06 836.799 142.24C841.327 144.253 846.778 146.098 853.151 147.775C859.524 149.284 865.897 151.297 872.27 153.813C878.643 156.161 884.01 160.186 888.371 165.888C892.899 171.59 895.163 178.718 895.163 187.271C895.163 200.185 890.299 210.164 880.572 217.208C871.012 224.084 859.021 227.522 844.598 227.522C818.77 227.522 801.16 217.543 791.769 197.585L819.944 181.737C823.634 192.638 831.852 198.089 844.598 198.089C856.17 198.089 861.956 194.483 861.956 187.271C861.956 183.917 859.692 181.234 855.164 179.221C850.803 177.041 845.436 175.112 839.063 173.435C832.69 171.758 826.317 169.661 819.944 167.146C813.571 164.63 808.12 160.689 803.592 155.322C799.232 149.788 797.051 142.911 797.051 134.693C797.051 122.283 801.58 112.555 810.636 105.512C819.86 98.3 831.265 94.6941 844.849 94.6941C855.08 94.6941 864.388 97.0421 872.773 101.738C881.159 106.266 887.784 112.807 892.647 121.36L864.975 136.454C860.95 127.901 854.241 123.624 844.849 123.624C840.657 123.624 837.135 124.547 834.284 126.392C831.6 128.237 830.258 130.752 830.258 133.939Z" fill="#00072C"/>
<path d="M959.093 227.522C940.141 227.522 924.292 221.149 911.546 208.403C898.968 195.657 892.679 179.892 892.679 161.108C892.679 142.324 898.968 126.559 911.546 113.813C924.292 101.067 940.141 94.6941 959.093 94.6941C971.336 94.6941 982.488 97.6291 992.551 103.499C1002.61 109.369 1010.24 117.251 1015.44 127.146L987.52 143.498C985.004 138.299 981.147 134.19 975.948 131.172C970.916 128.153 965.214 126.643 958.841 126.643C949.114 126.643 941.064 129.914 934.691 136.454C928.317 142.827 925.131 151.045 925.131 161.108C925.131 171.003 928.317 179.221 934.691 185.762C941.064 192.135 949.114 195.321 958.841 195.321C965.382 195.321 971.168 193.896 976.199 191.045C981.398 188.026 985.256 183.917 987.771 178.718L1015.95 194.818C1010.41 204.713 1002.61 212.68 992.551 218.717C982.488 224.587 971.336 227.522 959.093 227.522Z" fill="#00072C"/>
<path d="M1123.22 208.403C1110.31 221.149 1094.54 227.522 1075.92 227.522C1057.31 227.522 1041.54 221.149 1028.63 208.403C1015.88 195.489 1009.51 179.724 1009.51 161.108C1009.51 142.492 1015.88 126.811 1028.63 114.065C1041.54 101.151 1057.31 94.6941 1075.92 94.6941C1094.54 94.6941 1110.31 101.151 1123.22 114.065C1136.13 126.811 1142.59 142.492 1142.59 161.108C1142.59 179.724 1136.13 195.489 1123.22 208.403ZM1051.52 186.013C1058.06 192.554 1066.2 195.824 1075.92 195.824C1085.65 195.824 1093.79 192.554 1100.33 186.013C1106.87 179.473 1110.14 171.171 1110.14 161.108C1110.14 151.045 1106.87 142.744 1100.33 136.203C1093.79 129.662 1085.65 126.392 1075.92 126.392C1066.2 126.392 1058.06 129.662 1051.52 136.203C1045.15 142.744 1041.96 151.045 1041.96 161.108C1041.96 171.171 1045.15 179.473 1051.52 186.013Z" fill="#00072C"/>
<path d="M1223.53 94.6941C1240.47 94.6941 1254.89 101.151 1266.8 114.065C1278.88 126.811 1284.91 142.492 1284.91 161.108C1284.91 179.724 1278.88 195.489 1266.8 208.403C1254.89 221.149 1240.47 227.522 1223.53 227.522C1205.92 227.522 1192.34 221.401 1182.78 209.158V274.314H1150.33V98.2161H1182.78V113.059C1192.34 100.816 1205.92 94.6941 1223.53 94.6941ZM1192.59 186.768C1199.13 193.309 1207.43 196.579 1217.49 196.579C1227.56 196.579 1235.86 193.309 1242.4 186.768C1249.11 180.06 1252.46 171.506 1252.46 161.108C1252.46 150.71 1249.11 142.24 1242.4 135.7C1235.86 128.991 1227.56 125.637 1217.49 125.637C1207.43 125.637 1199.13 128.991 1192.59 135.7C1186.05 142.24 1182.78 150.71 1182.78 161.108C1182.78 171.506 1186.05 180.06 1192.59 186.768Z" fill="#00072C"/>
<path d="M1320.13 174.441C1324.49 190.206 1336.31 198.089 1355.6 198.089C1368.01 198.089 1377.4 193.896 1383.77 185.51L1409.94 200.604C1397.53 218.549 1379.25 227.522 1355.1 227.522C1334.3 227.522 1317.61 221.233 1305.03 208.654C1292.46 196.076 1286.17 180.227 1286.17 161.108C1286.17 142.157 1292.37 126.392 1304.78 113.813C1317.19 101.067 1333.13 94.6941 1352.58 94.6941C1371.03 94.6941 1386.21 101.067 1398.11 113.813C1410.19 126.559 1416.23 142.324 1416.23 161.108C1416.23 165.301 1415.81 169.745 1414.97 174.441H1320.13ZM1319.62 149.284H1383.77C1381.93 140.731 1378.07 134.358 1372.2 130.165C1366.5 125.972 1359.96 123.876 1352.58 123.876C1343.86 123.876 1336.65 126.14 1330.95 130.668C1325.24 135.029 1321.47 141.234 1319.62 149.284Z" fill="#00072C"/>
</svg>
