<svg width="143" height="149" viewBox="0 0 143 149" fill="none" xmlns="http://www.w3.org/2000/svg">
<g clip-path="url(#clip0_924_269)">
<path d="M99.4502 128.424L98.4074 149H46.1279L47.0937 120.355L47.3807 111.901H70.0141L99.4502 128.424Z" fill="#00072C"/>
<path d="M44.3921 0L97.1405 0.0279944L96.3846 31.4587L96.2936 35.4829L96.2376 37.6944H73.4152L43.8882 21.0588L44.3921 0Z" fill="#00072C"/>
<path d="M101.193 34.538V35.4058L101.214 34.531H101.193V34.538Z" fill="#E4F7CA"/>
<path d="M142.618 90.6528L117.297 132.826L104.504 125.646L80.0225 111.901H101.039V96.3077L102.152 95.7408L127.627 82.7374L142.618 90.6528Z" fill="#00072C"/>
<path d="M42.5591 54.736L16.2304 68.3063L0.959473 59.733L26.3154 17.4895L63.1 37.7854L42.4891 37.9184L42.5591 54.736Z" fill="#00072C"/>
<path d="M143.604 68.9711L101.053 90.7927L101.193 35.4058V34.538L101.214 34.531L119.249 25.5658L143.604 68.9711Z" fill="#00072C"/>
<path d="M96.3008 31.5006V35.4828L96.3848 31.4586L96.3008 31.5006Z" fill="#E4F7CA"/>
<path d="M42.5654 60.3069V117.065L42.2995 117.191L24.3761 125.59L0 82.1355L16.1318 73.8632L16.3137 73.7722L42.5654 60.3069Z" fill="#00072C"/>
</g>
<defs>
<clipPath id="clip0_924_269">
<rect width="143.604" height="149" fill="white"/>
</clipPath>
</defs>
</svg>